<svg width="782" height="782" viewBox="0 0 782 782" fill="none" xmlns="http://www.w3.org/2000/svg">
<circle cx="391" cy="391" r="391" fill="#010749"/>
<path d="M391.715 189.904V344.474C368.909 325.734 339.535 315.309 309.056 315.137C234.944 315.137 174.879 376.598 174.879 452.362C174.879 528.125 234.944 589.623 309.056 589.623C339.509 589.502 368.88 579.142 391.715 560.469V583.352H461.554V176.005L391.715 189.904ZM391.715 477.481C381.665 507.442 353.927 528.822 321.244 528.822C280.092 528.822 246.736 494.607 246.736 452.398C246.736 410.189 280.092 376.011 321.244 376.011C353.927 376.011 381.665 397.538 391.715 427.352C397.149 443.582 397.149 460.958 391.715 477.188V477.481Z" fill="white"/>
<path d="M324.16 479.295C342.082 479.295 356.611 465.717 356.611 448.966C356.611 432.216 342.082 418.637 324.16 418.637C306.237 418.637 291.708 432.216 291.708 448.966C291.708 465.717 306.237 479.295 324.16 479.295Z" fill="white"/>
<path d="M592.943 176.005H526.053V460.289H592.943V176.005Z" fill="#F9D00B"/>
<path d="M555.665 596.341C581.255 596.341 602 577.115 602 553.399C602 529.682 581.255 510.457 555.665 510.457C530.075 510.457 509.33 529.682 509.33 553.399C509.33 577.115 530.075 596.341 555.665 596.341Z" fill="#F9D00B"/>
</svg>
