<svg width="111" height="34" viewBox="0 0 111 34" fill="none" xmlns="http://www.w3.org/2000/svg">
<g clip-path="url(#clip0_144_32)">
<path d="M47.009 11.9547L43.9116 14.4003C43.9116 14.4003 41.6638 11.3918 39.7424 12.7255C37.5561 14.2414 40.5824 15.4864 43.0077 15.72C45.4331 15.9536 49.7182 19.824 45.5893 24.2831C41.4603 28.7421 35.0574 24.818 33.6637 22.7017L36.7823 20.0576C36.7823 20.0576 38.7368 22.2743 40.483 22.1201C42.2293 21.966 43.3225 20.9522 42.4091 19.9805C41.4958 19.0088 35.8051 18.9901 34.9036 15.8788C34.0021 12.7675 35.8359 7.11256 43.0077 8.79434C43.0077 8.79434 45.7951 9.50676 47.009 11.9547Z" fill="white"/>
<path d="M23.1791 16.0984H29.7098C29.7098 16.0984 29.5039 12.6694 26.1866 12.7722C22.8692 12.875 22.0694 16.0213 22.0694 16.0213C21.8911 17.1863 21.9296 18.3736 22.183 19.525C22.3618 20.3434 22.7588 21.0998 23.3329 21.716C25.2685 23.6781 28.7278 22.9656 30.1736 20.7817L33.1952 23.2529C33.1952 23.2529 30.9733 27.5859 24.7787 26.488C18.584 25.3902 17.1643 19.7376 18.0161 15.5565C18.868 11.3754 22.9212 8.60043 27.3602 9.28949C31.7991 9.97856 34.5889 13.3398 34.1227 19.532H22.3486L23.1791 16.0984Z" fill="white"/>
<path d="M12.9667 0.885271V10.7307C11.6029 9.53705 9.84634 8.873 8.02372 8.86205C3.59187 8.86205 0 12.7769 0 17.6026C0 22.4284 3.59187 26.3456 8.02372 26.3456C9.8448 26.3378 11.6012 25.678 12.9667 24.4886V25.9461H17.143V0L12.9667 0.885271ZM12.9667 19.2027C12.3657 21.111 10.707 22.4728 8.75251 22.4728C6.29168 22.4728 4.29699 20.2935 4.29699 17.605C4.29699 14.9165 6.29168 12.7395 8.75251 12.7395C10.707 12.7395 12.3657 14.1106 12.9667 16.0096C13.2916 17.0434 13.2916 18.1502 12.9667 19.184V19.2027Z" fill="white"/>
<path d="M52.9268 9.50439H48.6937V26.3572H52.9268V9.50439Z" fill="white"/>
<path d="M50.809 7.51898C52.3393 7.51898 53.5798 6.29438 53.5798 4.78375C53.5798 3.27313 52.3393 2.04852 50.809 2.04852C49.2788 2.04852 48.0382 3.27313 48.0382 4.78375C48.0382 6.29438 49.2788 7.51898 50.809 7.51898Z" fill="white"/>
<path d="M8.92658 19.3182C9.99832 19.3182 10.8671 18.4533 10.8671 17.3863C10.8671 16.3194 9.99832 15.4545 8.92658 15.4545C7.85484 15.4545 6.98602 16.3194 6.98602 17.3863C6.98602 18.4533 7.85484 19.3182 8.92658 19.3182Z" fill="white"/>
<path d="M94.1859 9.50439H89.9528V18.899H94.1859V9.50439Z" fill="white"/>
<path d="M92.0682 26.3572C93.5984 26.3572 94.839 25.1326 94.839 23.622C94.839 22.1114 93.5984 20.8868 92.0682 20.8868C90.5379 20.8868 89.2974 22.1114 89.2974 23.622C89.2974 25.1326 90.5379 26.3572 92.0682 26.3572Z" fill="white"/>
<path d="M72.6986 8.87371H65.0251C64.415 8.7363 63.7911 8.66735 63.1653 8.66816C58.4187 8.66816 54.5713 12.583 54.5713 17.4087C54.5713 22.2345 58.4187 26.1493 63.1653 26.1493C67.9118 26.1493 71.7616 22.2369 71.7616 17.4087C71.7658 15.7599 71.3053 14.1425 70.4318 12.7371H72.6986V8.87371ZM63.1842 22.085C60.7021 22.085 58.6884 19.9828 58.6884 17.3644C58.6884 14.7459 60.6997 12.6437 63.1842 12.6437C65.6687 12.6437 67.6799 14.7459 67.6799 17.3644C67.6799 19.9828 65.664 22.085 63.1842 22.085Z" fill="white"/>
<path d="M57.5219 27.5765L54.8032 30.6131C54.8032 30.6131 62.5216 38.069 71.2978 30.8326L68.5625 27.5625C68.5625 27.5625 63.6243 33.0049 57.5219 27.5765Z" fill="#F9D00B"/>
<path d="M73.7421 9.35723V26.175H77.9752V16.7127C77.9672 15.9819 78.1402 15.2602 78.4792 14.6105C78.9524 13.7486 79.8019 12.8539 81.3565 13.0034C84.2621 13.2837 84.158 16.2736 84.158 16.2736V26.182H88.4692V15.4443C88.4773 14.4021 88.2713 13.3691 87.8635 12.4078C87.1536 10.7587 85.6085 8.86204 82.3124 9.06526C82.3124 9.06526 79.3831 9.12599 78.155 10.3873C78.14 10.4035 78.1217 10.4163 78.1013 10.4252C78.0809 10.434 78.0589 10.4385 78.0367 10.4385C78.0145 10.4385 77.9925 10.434 77.9721 10.4252C77.9518 10.4163 77.9335 10.4035 77.9184 10.3873L77.1565 9.41329L73.7421 9.35723Z" fill="white"/>
<path d="M96.2729 9.35723V26.175H100.508V16.7127C100.499 15.9821 100.672 15.2604 101.01 14.6105C101.483 13.7486 102.333 12.8539 103.89 13.0034C106.793 13.2837 106.689 16.2736 106.689 16.2736V26.182H111V15.4443C111.009 14.4021 110.803 13.3689 110.394 12.4078C109.684 10.7587 108.139 8.86204 104.843 9.06526C104.843 9.06526 101.914 9.12599 100.688 10.3873C100.673 10.4051 100.654 10.4193 100.632 10.4291C100.611 10.4389 100.588 10.4439 100.564 10.4439C100.54 10.4439 100.517 10.4389 100.496 10.4291C100.474 10.4193 100.455 10.4051 100.44 10.3873L99.6873 9.41329L96.2729 9.35723Z" fill="white"/>
</g>
<defs>
<clipPath id="clip0_144_32">
<rect width="111" height="34" fill="white"/>
</clipPath>
</defs>
</svg>
